<svg xmlns="http://www.w3.org/2000/svg" width="1600" height="900" viewBox="0 0 1600 900">
<defs>
  <linearGradient id="bg" x1="0" y1="0" x2="1" y2="1"><stop stop-color="#f8fbff"/><stop offset="1" stop-color="#e7f6f4"/></linearGradient>
  <linearGradient id="nav" x1="0" x2="1"><stop stop-color="#15324d"/><stop offset="1" stop-color="#244a73"/></linearGradient>
  <linearGradient id="teal" x1="0" x2="1"><stop stop-color="#0f766e"/><stop offset="1" stop-color="#20a39e"/></linearGradient>
  <filter id="shadow"><feDropShadow dx="0" dy="8" stdDeviation="10" flood-opacity=".18"/></filter>
  <style>
    .t{font-family:Inter,Segoe UI,Arial,sans-serif}.navy{fill:#16324f}.teal{fill:#0f766e}.muted{fill:#526477}
    .card{fill:#fff;stroke:#d6e3ea;stroke-width:2}.small{font-size:18px}.mid{font-size:24px}.bold{font-weight:700}
  </style>
</defs>
<rect width="1600" height="900" fill="url(#bg)"/>
<path d="M1000 0h600v560c-160 60-290 20-410-80-100-84-160-205-190-480z" fill="#d8f0ee"/>
<g class="t">
  <text x="75" y="105" font-size="64" class="navy bold">Sabia HRBP Recovery</text>
  <text x="78" y="155" font-size="31" class="teal bold">Smartwatch Manufacturing Analytics Project</text>
  <rect x="78" y="177" width="270" height="7" rx="4" fill="#f5b942"/>
  <text x="78" y="224" class="muted small">People First  •  Data Driven  •  Operations Strong  •  Recovery Together</text>
  <rect x="75" y="252" width="850" height="82" rx="18" class="card" filter="url(#shadow)"/>
  <circle cx="118" cy="293" r="25" fill="#0f766e"/><path d="M118 277c-10 0-17 8-17 17 0 13 17 28 17 28s17-15 17-28c0-9-7-17-17-17zm0 23a7 7 0 1 1 0-14 7 7 0 0 1 0 14z" fill="#fff"/>
  <text x="158" y="286" class="navy mid bold">Bangladesh-focused HR Business Partner transformation</text>
  <text x="158" y="316" class="muted small">Factory recovery through workforce strategy, people analytics and operational discipline</text>

  <!-- Factory scene -->
  <g transform="translate(975 55)" filter="url(#shadow)">
    <rect width="550" height="300" rx="24" fill="#fff"/>
    <rect x="18" y="18" width="514" height="58" rx="12" fill="url(#nav)"/>
    <text x="42" y="56" fill="#fff" font-size="25" class="bold">FACTORY FLOOR • PRECISION ASSEMBLY</text>
    <rect x="30" y="105" width="490" height="26" fill="#b9dbe0"/>
    <rect x="30" y="145" width="490" height="18" fill="#7baeb9"/>
    <g fill="#d7eaf0" stroke="#285b72" stroke-width="3">
      <circle cx="80" cy="198" r="24"/><circle cx="190" cy="198" r="24"/><circle cx="300" cy="198" r="24"/><circle cx="410" cy="198" r="24"/>
    </g>
    <g fill="#2d7e9a">
      <path d="M55 240q25-45 50 0v38H55z"/><path d="M165 240q25-45 50 0v38h-50z"/>
      <path d="M275 240q25-45 50 0v38h-50z"/><path d="M385 240q25-45 50 0v38h-50z"/>
    </g>
    <g fill="#f5b942"><rect x="64" y="249" width="32" height="8"/><rect x="174" y="249" width="32" height="8"/><rect x="284" y="249" width="32" height="8"/><rect x="394" y="249" width="32" height="8"/></g>
    <rect x="455" y="182" width="55" height="80" rx="8" fill="#16324f"/><rect x="462" y="190" width="41" height="45" fill="#7ee0d5"/>
  </g>

  <!-- Office pressure scene -->
  <g transform="translate(975 375)" filter="url(#shadow)">
    <rect width="550" height="255" rx="24" fill="#fff"/>
    <rect x="18" y="18" width="514" height="54" rx="12" fill="#0f766e"/>
    <text x="40" y="54" fill="#fff" font-size="24" class="bold">HRBP RECOVERY WAR ROOM</text>
    <rect x="32" y="92" width="145" height="92" rx="10" fill="#eef6fb" stroke="#8bb5cc"/>
    <polyline points="45,164 70,144 94,153 120,121 160,110" fill="none" stroke="#0f766e" stroke-width="6"/>
    <rect x="193" y="92" width="145" height="92" rx="10" fill="#f7f2ff" stroke="#9d84d9"/>
    <circle cx="265" cy="138" r="34" fill="none" stroke="#6655cc" stroke-width="16" stroke-dasharray="150 70"/>
    <rect x="354" y="92" width="166" height="92" rx="10" fill="#fff7e8" stroke="#e5b34b"/>
    <text x="370" y="124" class="navy bold" font-size="17">Q1 RESET</text><text x="370" y="150" class="teal bold" font-size="17">Q2 PILOT</text><text x="370" y="176" fill="#6655cc" font-size="17" class="bold">Q3–Q4 SCALE</text>
    <ellipse cx="120" cy="215" rx="42" ry="20" fill="#bdd7e1"/><ellipse cx="240" cy="215" rx="42" ry="20" fill="#bdd7e1"/><ellipse cx="360" cy="215" rx="42" ry="20" fill="#bdd7e1"/><ellipse cx="470" cy="215" rx="42" ry="20" fill="#bdd7e1"/>
    <g fill="#16324f"><circle cx="120" cy="199" r="15"/><circle cx="240" cy="199" r="15"/><circle cx="360" cy="199" r="15"/><circle cx="470" cy="199" r="15"/></g>
  </g>

  <!-- Tools -->
  <text x="75" y="385" class="teal mid bold">TOOLS &amp; TECHNOLOGIES</text>
  <g transform="translate(75 408)">
    <g><rect width="104" height="68" rx="13" class="card"/><text x="52" y="30" text-anchor="middle" fill="#198754" font-size="22" class="bold">XLS</text><text x="52" y="54" text-anchor="middle" class="navy small">Excel</text></g>
    <g transform="translate(116)"><rect width="104" height="68" rx="13" class="card"/><text x="52" y="30" text-anchor="middle" fill="#e7a900" font-size="22" class="bold">PBI</text><text x="52" y="54" text-anchor="middle" class="navy small">Power BI</text></g>
    <g transform="translate(232)"><rect width="104" height="68" rx="13" class="card"/><text x="52" y="30" text-anchor="middle" fill="#3572a5" font-size="22" class="bold">PY</text><text x="52" y="54" text-anchor="middle" class="navy small">Python</text></g>
    <g transform="translate(348)"><rect width="104" height="68" rx="13" class="card"/><text x="52" y="30" text-anchor="middle" fill="#26619c" font-size="22" class="bold">SQL</text><text x="52" y="54" text-anchor="middle" class="navy small">Database</text></g>
    <g transform="translate(464)"><rect width="104" height="68" rx="13" class="card"/><text x="52" y="30" text-anchor="middle" fill="#0f766e" font-size="22" class="bold">DB</text><text x="52" y="54" text-anchor="middle" class="navy small">SQLite</text></g>
    <g transform="translate(580)"><rect width="104" height="68" rx="13" class="card"/><text x="52" y="30" text-anchor="middle" fill="#7b4f2b" font-size="22" class="bold">DBe</text><text x="52" y="54" text-anchor="middle" class="navy small">DBeaver</text></g>
    <g transform="translate(696)"><rect width="104" height="68" rx="13" class="card"/><text x="52" y="30" text-anchor="middle" fill="#4285f4" font-size="22" class="bold">LS</text><text x="52" y="54" text-anchor="middle" class="navy small">Looker</text></g>
  </g>
  <rect x="75" y="492" width="850" height="48" rx="14" fill="#fff7dd" stroke="#e5b34b"/>
  <text x="98" y="523" class="navy small"><tspan class="bold">Recommended data-cleaning stack:</tspan> Python • SQL • SQLite • DBeaver • Excel Power Query</text>

  <!-- Pillars -->
  <text x="75" y="590" class="navy mid bold">INTEGRATED HRBP PILLARS</text>
  <g transform="translate(75 615)">
    <g><rect width="205" height="105" rx="18" class="card"/><circle cx="36" cy="36" r="22" fill="#0f766e"/><text x="36" y="44" text-anchor="middle" fill="#fff" class="bold" font-size="22">1</text><text x="70" y="34" class="navy bold mid">Workforce</text><text x="70" y="59" class="navy bold mid">Strategy</text><text x="20" y="88" class="muted small">Skills aligned to goals</text></g>
    <g transform="translate(220)"><rect width="205" height="105" rx="18" class="card"/><circle cx="36" cy="36" r="22" fill="#2f70aa"/><text x="36" y="44" text-anchor="middle" fill="#fff" class="bold" font-size="22">2</text><text x="70" y="34" class="navy bold mid">Organization</text><text x="70" y="59" class="navy bold mid">Design</text><text x="20" y="88" class="muted small">Agile roles and structure</text></g>
    <g transform="translate(440)"><rect width="205" height="105" rx="18" class="card"/><circle cx="36" cy="36" r="22" fill="#6655cc"/><text x="36" y="44" text-anchor="middle" fill="#fff" class="bold" font-size="22">3</text><text x="70" y="34" class="navy bold mid">HR Services</text><text x="70" y="59" class="navy bold mid">&amp; ER</text><text x="20" y="88" class="muted small">Reliable employee support</text></g>
    <g transform="translate(660)"><rect width="205" height="105" rx="18" class="card"/><circle cx="36" cy="36" r="22" fill="#28618f"/><text x="36" y="44" text-anchor="middle" fill="#fff" class="bold" font-size="22">4</text><text x="70" y="34" class="navy bold mid">HR Technology</text><text x="70" y="59" class="navy bold mid">&amp; Analytics</text><text x="20" y="88" class="muted small">Data, workflow and insight</text></g>
  </g>

  <!-- Timeline -->
  <rect x="75" y="755" width="1450" height="105" rx="22" fill="url(#nav)"/>
  <text x="105" y="795" fill="#fff" font-size="23" class="bold">HRBP TRANSFORMATION JOURNEY</text>
  <text x="105" y="829" fill="#bdece7" class="small">Q1 Plan &amp; Reset  →  Q2 Pilot  →  Q3 Scale  →  Q4 Full Rollout</text>
  <g transform="translate(735 775)">
    <circle cx="0" cy="25" r="28" fill="#13a89e"/><text x="0" y="33" text-anchor="middle" fill="#fff" class="bold mid">Q1</text>
    <circle cx="160" cy="25" r="28" fill="#3182bd"/><text x="160" y="33" text-anchor="middle" fill="#fff" class="bold mid">Q2</text>
    <circle cx="320" cy="25" r="28" fill="#745ac7"/><text x="320" y="33" text-anchor="middle" fill="#fff" class="bold mid">Q3</text>
    <circle cx="480" cy="25" r="28" fill="#3a88c8"/><text x="480" y="33" text-anchor="middle" fill="#fff" class="bold mid">Q4</text>
    <path d="M33 25h94M193 25h94M353 25h94" stroke="#fff" stroke-width="4" stroke-dasharray="8 8"/>
  </g>

  <!-- Author -->
  <g transform="translate(1000 655)" filter="url(#shadow)">
    <rect width="525" height="90" rx="18" fill="#fff"/>
    <circle cx="52" cy="45" r="32" fill="url(#teal)"/><text x="52" y="54" text-anchor="middle" fill="#fff" font-size="26" class="bold">M</text>
    <text x="98" y="30" class="teal small bold">Author: Siam Ahmad Musa</text>
    <text x="98" y="55" class="navy small bold">HRBP | HR &amp; Data Analytics Practitioner</text>
    <text x="98" y="78" class="muted" font-size="15">Business improvement through systems—not system building alone.</text>
  </g>
</g>
</svg>